<?xml version="1.0" encoding="UTF-8"?>
<svg id="Layer_1" data-name="Layer 1" xmlns="http://www.w3.org/2000/svg" viewBox="0 0 42.6 31">
  <defs>
    <style>
      .cls-1 {
        fill: #fff;
      }

      .cls-2 {
        fill: #808;
      }

      .cls-3 {
        fill: #121212;
      }
    </style>
  </defs>
  <g>
    <path class="cls-3" d="m10.25,30.53c-.23-.02-.41-.23-.44-.46-2.16-7.19-7.77-14.51-7.82-14.58-.98-1.58-1.48-3.36-1.48-5.18C.5,4.92,4.89.52,10.28.5c0,0,.06,0,.08,0,5.35,0,9.74,4.41,9.74,9.81,0,1.82-.5,3.6-1.45,5.14-.09.12-5.71,7.46-7.86,14.66,0,.01,0,.03-.01.04-.04.24-.24.38-.48.38-.02,0-.03,0-.05,0Zm.06-23.3c-1.7,0-3.08,1.38-3.08,3.08s1.38,3.08,3.08,3.08,3.08-1.38,3.08-3.08-1.38-3.08-3.08-3.08Z"/>
    <path class="cls-1" d="m10.31,1h0c5.13.01,9.29,4.18,9.29,9.31,0,1.79-.5,3.46-1.38,4.88,0,0-5.72,7.41-7.92,14.8v.02s0,0,0,0c0,0,0,0,0,0v-.02c-2.21-7.39-7.92-14.8-7.92-14.8-.87-1.42-1.38-3.09-1.38-4.88C1,5.18,5.16,1.01,10.29,1h0s0,0,0,0,0,0,0,0h0s0,0,0,0,0,0,0,0h0s0,0,0,0,0,0,0,0m0,12.89c1.98,0,3.58-1.6,3.58-3.58s-1.6-3.58-3.58-3.58-3.58,1.6-3.58,3.58,1.6,3.58,3.58,3.58m0-13.89s0,0-.01,0c0,0,0,0,0,0,0,0,0,0,0,0,0,0-.01,0-.02,0h0s-.01,0-.02,0C4.58.05,0,4.66,0,10.31c0,1.91.53,3.78,1.53,5.4.02.03.04.06.06.09.06.07,5.62,7.34,7.75,14.45,0,.03.02.07.03.1.15.39.52.65.94.65.05,0,.09,0,.14-.01.43-.06.76-.38.84-.79,2.14-7.09,7.68-14.32,7.73-14.4.02-.03.04-.06.06-.09,1-1.62,1.53-3.49,1.53-5.4C20.6,4.65,16,.03,10.34,0c0,0-.02,0-.03,0,0,0,0,0,0,0h0Zm0,12.89c-1.42,0-2.58-1.16-2.58-2.58s1.16-2.58,2.58-2.58,2.58,1.16,2.58,2.58-1.16,2.58-2.58,2.58h0Z"/>
  </g>
  <g>
    <path class="cls-2" d="m32.22,30.49c-.22-.04-.38-.2-.42-.41-2.16-7.19-7.77-14.51-7.82-14.58-.98-1.58-1.48-3.36-1.48-5.18,0-5.4,4.39-9.79,9.78-9.81,0,0,.04,0,.05,0,5.4.02,9.78,4.42,9.78,9.81,0,1.82-.5,3.6-1.45,5.14-.09.12-5.71,7.46-7.87,14.66,0,.01,0,.03-.01.04h0c-.07.21-.26.35-.48.35-.03,0-.05,0-.08,0Zm.09-23.26c-1.7,0-3.08,1.38-3.08,3.08s1.38,3.08,3.08,3.08,3.08-1.38,3.08-3.08-1.38-3.08-3.08-3.08Z"/>
    <path class="cls-1" d="m32.31,1h0c5.13.01,9.29,4.18,9.29,9.31,0,1.79-.5,3.46-1.38,4.88,0,0-5.72,7.41-7.92,14.8v.02s0,0,0,0c0,0,0,0,0,0v-.02c-2.21-7.39-7.92-14.8-7.92-14.8-.87-1.42-1.38-3.09-1.38-4.88,0-5.14,4.16-9.3,9.29-9.31h0s0,0,0,0,0,0,0,0h0s0,0,0,0,0,0,0,0h0s0,0,0,0,0,0,0,0m0,12.89c1.98,0,3.58-1.6,3.58-3.58s-1.6-3.58-3.58-3.58-3.58,1.6-3.58,3.58,1.6,3.58,3.58,3.58m0-13.89s0,0-.01,0c0,0,0,0,0,0,0,0,0,0,0,0,0,0-.01,0-.02,0h0s-.01,0-.02,0c-5.68.05-10.26,4.66-10.26,10.31,0,1.91.53,3.78,1.53,5.4.02.03.04.06.06.09.06.07,5.62,7.34,7.75,14.45,0,.03.02.07.03.1.15.39.52.65.94.65.05,0,.09,0,.14-.01.43-.06.76-.38.84-.79,2.14-7.09,7.68-14.32,7.73-14.4.02-.03.04-.06.06-.09,1-1.62,1.53-3.49,1.53-5.4C42.6,4.65,38,.03,32.34,0c0,0-.02,0-.03,0,0,0,0,0,0,0h0Zm0,12.89c-1.42,0-2.58-1.16-2.58-2.58s1.16-2.58,2.58-2.58,2.58,1.16,2.58,2.58-1.16,2.58-2.58,2.58h0Z"/>
  </g>
</svg>