<?xml version="1.0" standalone="no"?>
<!DOCTYPE svg PUBLIC "-//W3C//DTD SVG 20010904//EN"
 "http://www.w3.org/TR/2001/REC-SVG-20010904/DTD/svg10.dtd">
<svg version="1.0" xmlns="http://www.w3.org/2000/svg"
 width="520.000000pt" height="520.000000pt" viewBox="0 0 520.000000 520.000000"
 preserveAspectRatio="xMidYMid meet">
<metadata>
Created by potrace 1.11, written by Peter Selinger 2001-2013
</metadata>
<g transform="translate(0.000000,520.000000) scale(0.100000,-0.100000)"
fill="#000000" stroke="none">
<path d="M699 5196 c-2 -2 -22 -7 -44 -10 -22 -4 -56 -11 -75 -17 -273 -82
-475 -289 -556 -569 -18 -62 -19 -140 -21 -1970 -2 -1620 0 -1915 12 -1975 20
-97 40 -157 72 -218 118 -221 298 -358 558 -424 17 -4 887 -9 1935 -10 2043
-2 1947 -5 2094 47 241 83 431 294 502 555 18 68 19 137 19 1995 0 1842 -1
1928 -19 1995 -51 196 -173 365 -344 476 -79 52 -147 80 -257 109 -66 17 -170
18 -1971 19 -1045 1 -1903 -1 -1905 -3z m3887 -243 c188 -80 297 -191 366
-368 l23 -60 0 -1915 c0 -1053 -3 -1926 -6 -1940 -14 -58 -75 -183 -111 -227
-88 -106 -191 -173 -323 -209 -75 -21 -3855 -16 -3900 5 -16 8 -54 25 -82 38
-75 35 -162 103 -207 162 -40 53 -100 161 -89 161 3 0 1 6 -5 12 -31 39 -32
124 -29 2016 1 1043 5 1906 9 1917 15 47 69 153 99 195 81 113 224 205 364
234 11 2 880 3 1930 2 l1910 -1 51 -22z"/>
<path d="M2649 4176 c-2 -2 -33 -7 -69 -10 -131 -14 -311 -62 -418 -112 -29
-13 -55 -24 -58 -24 -2 0 -42 -21 -87 -46 -263 -148 -474 -373 -605 -645 -34
-71 -93 -229 -108 -288 -2 -9 -8 -34 -13 -56 -28 -115 -36 -200 -36 -385 0
-164 8 -264 25 -330 5 -19 12 -53 16 -74 17 -113 128 -372 215 -506 232 -357
639 -605 1062 -647 93 -10 323 -10 409 0 233 25 510 129 768 288 l48 29 -85
213 c-47 116 -98 247 -115 290 -16 42 -35 77 -41 77 -7 0 -25 -9 -42 -20 -51
-35 -297 -156 -362 -178 -113 -39 -185 -52 -303 -54 -352 -6 -627 159 -783
469 -33 65 -75 193 -83 251 -3 26 -8 56 -10 67 -7 31 -7 229 0 261 3 16 8 45
10 64 16 104 44 186 97 291 93 180 234 303 449 392 32 14 118 34 179 43 45 6
204 6 241 0 75 -13 97 -18 160 -37 82 -25 236 -100 365 -177 55 -33 101 -59
103 -58 2 3 170 488 195 564 10 31 9 36 -14 53 -13 10 -100 57 -194 104 -163
81 -336 147 -419 159 -21 4 -48 8 -60 11 -12 3 -34 7 -51 11 -34 6 -380 15
-386 10z"/>
</g>
</svg>
